<svg xmlns="http://www.w3.org/2000/svg" xml:space="preserve" viewBox="0 0 192 192">
  <path d="M114 193H1V1h192v192h-79m-37-61c9 1 14-6 20-11 3 3 6 7 10 9 3 2 7 1 11 1l1-6c-8 0-9-1-16-10l7-11c5-9 2-18-8-21H92c-9 2-13 9-10 17l9 16c-5 4-8 10-18 9l4 7m84-40c-5-8-14-11-22-7-7 4-10 13-7 21s12 11 20 8c9-3 12-12 9-22M52 84h-6c-9-1-18 9-14 20 2 8 8 12 17 11 6-1 12-6 13-11 2-9-2-16-10-20z"/>
  <path fill="#FDFDFD" d="m76 132-3-7c10 1 13-5 18-9l-9-16c-3-8 1-15 10-17h10c10 3 13 12 8 21l-7 11c7 9 8 10 16 10l-1 6c-4 0-8 1-11-1-4-2-7-6-10-9-6 5-11 12-21 11zM161 93c3 9 0 18-9 21-8 3-17 0-20-8s0-17 7-21c8-4 17-1 22 8zM52 84c8 4 12 11 10 20-1 5-7 10-13 11-9 1-15-3-17-11-4-11 5-21 14-20h6z"/>
</svg>
