<?xml version="1.0" standalone="no"?>
<!DOCTYPE svg PUBLIC "-//W3C//DTD SVG 20010904//EN"
 "http://www.w3.org/TR/2001/REC-SVG-20010904/DTD/svg10.dtd">
<svg version="1.0" xmlns="http://www.w3.org/2000/svg"
 width="1000.000000pt" height="1000.000000pt" viewBox="0 0 1000.000000 1000.000000"
 preserveAspectRatio="xMidYMid meet">
<metadata>
Created by potrace 1.14, written by Peter Selinger 2001-2017
</metadata>
<g transform="translate(0.000000,1000.000000) scale(0.100000,-0.100000)"
fill="#000000" stroke="none">
<path d="M4840 5733 c-367 -39 -593 -208 -656 -489 -13 -59 -15 -107 -12 -213
4 -119 9 -148 37 -230 40 -118 116 -267 188 -368 56 -78 220 -268 287 -332 20
-19 36 -38 36 -42 0 -11 -395 -379 -448 -417 -26 -19 -71 -46 -101 -59 -48
-23 -66 -26 -168 -25 -63 0 -127 3 -142 7 -15 3 -34 0 -44 -7 -39 -30 -47
-226 -11 -287 42 -71 180 -102 364 -82 246 26 299 58 591 354 l226 229 198
-209 c256 -270 311 -311 473 -355 105 -28 323 -31 398 -5 90 31 114 74 114
201 0 90 -13 142 -39 155 -9 5 -64 5 -124 0 -222 -18 -264 8 -574 344 l-155
167 79 88 c172 192 261 316 338 477 84 172 100 241 100 420 -1 137 -3 157 -28
228 -91 261 -295 405 -632 446 -85 10 -218 12 -295 4z"/>
<path d="M2238 5690 c-85 -15 -162 -41 -253 -88 -74 -38 -107 -63 -185 -142
-136 -136 -205 -266 -235 -438 -91 -519 287 -972 810 -972 387 0 709 249 805
625 27 103 29 278 5 385 -61 271 -267 502 -531 594 -123 43 -288 57 -416 36z"/>
<path d="M7428 5690 c-240 -41 -467 -209 -583 -431 -71 -137 -90 -217 -89
-389 0 -150 5 -181 50 -302 88 -235 287 -417 534 -488 95 -27 279 -37 375 -21
341 60 602 313 670 650 23 111 16 294 -14 399 -48 165 -156 324 -286 422 -111
82 -241 139 -366 159 -73 12 -221 12 -291 1z"/>
</g>
</svg>
